<svg width="46" height="46" fill="none" xmlns="http://www.w3.org/2000/svg"><path d="M23 46c12.703 0 23-10.297 23-23S35.703 0 23 0 0 10.297 0 23s10.297 23 23 23z" fill="#FEE305"/><path fill-rule="evenodd" clip-rule="evenodd" d="M11.891 33.065v-3.929a.785.785 0 0 1 1.096-.722c2.417 1.05 5.068 1.559 7.954 1.559 3.952 0 6.24-1.092 6.24-3.016 0-1.717-1.507-2.549-4.576-2.549h-4.302a.794.794 0 0 1-.795-.794v-3.716c0-.439.356-.795.795-.795h4.302c2.497 0 3.745-.779 3.745-2.287 0-1.665-1.769-2.497-5.305-2.497-2.72 0-5.174.421-7.36 1.295a.78.78 0 0 1-1.065-.728v-3.748c0-.488.302-.918.754-1.101 2.528-1.03 5.649-1.543 9.283-1.543 3.173 0 5.825.676 7.957 2.028 2.132 1.351 3.224 3.068 3.224 5.097 0 2.655-1.076 4.458-3.226 5.37-.165.069-.158.311.01.375 2.443.931 4.257 2.948 4.257 6.007 0 2.445-1.196 4.473-3.588 6.085-2.34 1.562-5.461 2.341-9.31 2.341-3.737 0-6.83-.56-9.355-1.64a1.19 1.19 0 0 1-.735-1.091z" fill="#251E1E"/></svg>